<?xml version="1.0" standalone="no"?><!DOCTYPE svg PUBLIC "-//W3C//DTD SVG 1.1//EN" "http://www.w3.org/Graphics/SVG/1.1/DTD/svg11.dtd"><svg t="1711331466927" class="icon" viewBox="0 0 1044 1024" version="1.1" xmlns="http://www.w3.org/2000/svg" p-id="6105" xmlns:xlink="http://www.w3.org/1999/xlink" width="203.90625" height="200"><path d="M777.155765 10.039216a86.819137 86.819137 0 0 1 86.698666 82.602666l0.100393 4.216471v255.096471a30.117647 30.117647 0 0 1-60.094746 2.911372l-0.140549-2.911372V96.858353c0-13.773804-10.440784-25.098039-23.853176-26.443294l-2.710588-0.140549H96.858353c-13.773804 0-25.098039 10.440784-26.443294 23.853176l-0.140549 2.730667v793.680314c0 13.753725 10.440784 25.077961 23.853176 26.443294l2.730667 0.12047h340.128627a30.117647 30.117647 0 0 1 2.911373 60.114824l-2.891294 0.12047H96.858353a86.819137 86.819137 0 0 1-86.718745-82.602666l-0.100392-4.216471V96.878431A86.819137 86.819137 0 0 1 92.641882 10.139608L96.858353 10.039216h680.297412zM408.656314 435.220078a30.117647 30.117647 0 0 1 2.891294 60.114824l-2.891294 0.120471H181.89051a30.117647 30.117647 0 0 1-2.911373-60.094746l2.911373-0.140549h226.765804z m226.765804-198.415058a30.117647 30.117647 0 0 1 2.911372 60.094745l-2.911372 0.140549H181.910588a30.117647 30.117647 0 0 1-2.911372-60.094745l2.911372-0.140549h453.531608z" fill="#18BAFF" p-id="6106"></path><path d="M748.80502 435.220078c157.535373 0 285.234196 127.698824 285.234196 285.234197 0 157.535373-127.698824 285.234196-285.234196 285.234196-157.535373 0-285.234196-127.698824-285.234196-285.234196 0-157.515294 127.698824-285.234196 285.234196-285.234197z m0 60.235295c-124.265412 0-224.998902 100.753569-224.998902 224.998902 0 124.28549 100.73349 224.998902 224.998902 224.998901 124.265412 0 224.998902-100.73349 224.998902-224.998901 0-124.245333-100.73349-224.998902-224.998902-224.998902z m-28.350745 115.45098c6.625882 0 13.05098 2.329098 18.150901 6.565647l97.460706 81.217255a28.350745 28.350745 0 0 1 0 43.550118l-97.460706 81.217254a28.350745 28.350745 0 0 1-46.481568-21.785098v-162.434509c0-15.641098 12.689569-28.330667 28.330667-28.330667z" fill="#FFD718" p-id="6107"></path></svg>